<svg xmlns="http://www.w3.org/2000/svg" width="20" height="20" viewBox="0 0 20 20">
    <path fill="#D0D1D5" d="M14.941 9.044h-.474v-2.26c0-1.643-1.703-2.979-3.797-2.979-2.094 0-3.797 1.336-3.797 2.978v2.26H6.4c-.817 0-1.479.52-1.479 1.16v5.38c0 .64.662 1.16 1.479 1.16h8.542c.817 0 1.479-.52 1.479-1.16v-5.38c0-.64-.662-1.16-1.479-1.16zm-6.74-2.26c0-1.068 1.108-1.937 2.47-1.937 1.36 0 2.467.869 2.467 1.936v2.26H8.202v-2.26zm3.226 6.05v1.448c0 .328-.339.594-.757.594s-.756-.266-.756-.594v-1.448c-.355-.19-.587-.508-.587-.87 0-.582.601-1.054 1.343-1.054s1.343.472 1.343 1.054c0 .362-.232.68-.586.87z"/>
</svg>
