<svg xmlns="http://www.w3.org/2000/svg" width="101.5" height="25.5">
    <path fill="#FFF" fill-rule="evenodd" stroke="#D0D1D5" d="M12.495.5h76.01C95.13.5 100.5 5.87 100.5 12.495v.01c0 6.625-5.37 11.995-11.995 11.995h-76.01C5.87 24.5.5 19.13.5 12.505v-.01C.5 5.87 5.87.5 12.495.5z"/>
    <text x="20.5" y="18.077" fill="#717171" font-family="Noto Sans CJK KR" font-size="12">
        로그아웃
    </text>
    <path fill="#B2B8BF" fill-rule="evenodd" d="M89.495 12.572c-.002.018-.004.036-.008.053l-.002.018-.016.062c0 .003 0 .005-.002.008a.431.431 0 0 1-.022.06c0 .003 0 .005-.002.007-.007.019-.016.037-.025.055l-.005.01a.764.764 0 0 1-.029.048l-.007.013-.033.044-.01.014c-.015.019-.032.036-.048.053l-2.182 2.198a.722.722 0 0 1-1.029 0 .738.738 0 0 1 0-1.036l.941-.947H78.59a.73.73 0 0 1-.727-.733.73.73 0 0 1 .727-.732h8.426l-.941-.947a.736.736 0 0 1 0-1.036.724.724 0 0 1 1.029 0l2.182 2.197.003.003a.7.7 0 0 1 .045.05l.012.017.031.041a.11.11 0 0 0 .008.015l.028.046.005.011c.009.018.018.036.025.054l.003.008a.386.386 0 0 1 .023.068l.016.061.002.019a.595.595 0 0 1 .008.198zm-6.313-2.594a4.484 4.484 0 0 0-3.734-2.005c-2.478 0-4.494 2.031-4.494 4.526 0 2.496 2.016 4.527 4.494 4.527a4.486 4.486 0 0 0 3.728-1.996.723.723 0 0 1 1.01-.197c.332.226.42.682.195 1.017a5.936 5.936 0 0 1-4.933 2.641c-3.28 0-5.949-2.688-5.949-5.992s2.669-5.991 5.949-5.991c1.985 0 3.832.992 4.941 2.653a.735.735 0 0 1-.198 1.016.723.723 0 0 1-1.009-.199z"/>
</svg>
